# xmcd CD database file
#
# Track frame offsets:
#	183
#	13998
#	32360
#	46910
#	64425
#	69548
#	77225
#	87528
#	102478
#	121595
#	141183
#	152808
#	161705
#	171275
#	181918
#	197868
#	210148
#
# Disc length: 2958 seconds
#
# Revision: 0
# Processed by: cddbd v1.5PL3 Copyright (c) Steve Scherf et al.
# Submitted via: cdripper 1.0.7
#
DISCID=ea0b8c11
DTITLE=Loren MazzaCane with Suzanne Langille - Rooms
DYEAR=1990
DGENRE=Blues
TTITLE0=Grip My Hand
TTITLE1=Blues no. 25
TTITLE2=Blues no. 10 (fallen son)
TTITLE3=Blues no. 12
TTITLE4=Blues no. 13
TTITLE5=Blues no. 15
TTITLE6=Blues no. 16
TTITLE7=Blues no. 19
TTITLE8=Blues no. 23
TTITLE9=Blues no. 24 (midnight)
TTITLE10=Blues no. 26 (the cup)
TTITLE11=Blues no. 27
TTITLE12=Blues no. 28
TTITLE13=Blues no. 29
TTITLE14=Blues no. 30 (palms)
TTITLE15=Can't Forget
TTITLE16=Blues no. 31
EXTD=YEAR: 1990
EXTT0=
EXTT1=
EXTT2=
EXTT3=
EXTT4=
EXTT5=
EXTT6=
EXTT7=
EXTT8=
EXTT9=
EXTT10=
EXTT11=
EXTT12=
EXTT13=
EXTT14=
EXTT15=
EXTT16=
PLAYORDER=
